<svg width="154" height="48" viewBox="0 0 154 48" fill="none" xmlns="http://www.w3.org/2000/svg">
<path d="M26.2912 32.256L26.7232 2.496C27.2352 1.984 27.7793 1.728 28.3553 1.728C28.9313 1.728 29.3792 1.824 29.6992 2.016C29.9232 6.272 30.0352 9.776 30.0352 12.528L29.6512 34.752C29.6512 35.392 29.6512 36 29.6512 36.576C28.5632 37.28 27.6672 37.632 26.9632 37.632L26.3872 37.536C26.0672 37.376 25.8112 37.248 25.6192 37.152C25.4592 37.088 25.2352 36.864 24.9472 36.48C24.6592 36.128 24.4672 35.872 24.3713 35.712C24.2752 35.552 24.0512 35.2 23.6992 34.656C23.3792 34.112 23.1552 33.744 23.0272 33.552C22.8992 33.328 21.9872 31.872 20.2912 29.184C18.6272 26.464 17.5712 24.768 17.1232 24.096C16.6752 23.424 15.7152 22 14.2432 19.824C12.8032 17.648 11.6672 16.032 10.8352 14.976C8.37125 11.84 6.09925 9.312 4.01925 7.392C4.17925 11.584 4.25925 16.064 4.25925 20.832C4.25925 25.6 4.16325 30.688 3.97124 36.096C3.58724 36.672 2.51525 36.96 0.755245 36.96C0.755245 18.88 0.691248 7.744 0.563248 3.552C1.17125 2.976 1.76324 2.688 2.33924 2.688C2.91525 2.688 3.47525 2.848 4.01925 3.168C4.85125 3.68 5.77925 4.448 6.80325 5.472C10.1952 8.864 13.3952 12.72 16.4032 17.04C19.4432 21.36 22.7392 26.432 26.2912 32.256Z" fill="black"/>
<path d="M38.0265 16.08C39.6585 13.584 42.0105 12.336 45.0825 12.336C48.1545 12.336 50.6025 13.584 52.4265 16.08C54.2825 18.576 55.2105 21.424 55.2105 24.624C55.2105 27.792 54.2025 30.48 52.1865 32.688C50.1705 34.896 47.6105 36 44.5065 36C41.4025 36 39.1465 35.136 37.7385 33.408C36.3305 31.648 35.6265 29.184 35.6265 26.016C35.6265 21.888 36.4265 18.576 38.0265 16.08ZM40.1385 18.624C39.7225 19.872 39.4025 21.12 39.1785 22.368C38.9865 23.616 38.8905 24.784 38.8905 25.872C38.8905 26.928 38.9705 27.904 39.1305 28.8C39.2905 29.664 39.5625 30.528 39.9465 31.392C40.3305 32.224 40.9065 32.896 41.6745 33.408C42.4425 33.888 43.3545 34.128 44.4105 34.128C46.5545 34.128 48.3465 33.248 49.7865 31.488C51.2585 29.728 51.9945 27.6 51.9945 25.104C51.9945 22.608 51.3225 20.192 49.9785 17.856C48.6665 15.488 47.0505 14.304 45.1305 14.304C43.9785 14.304 42.9705 14.704 42.1065 15.504C41.2425 16.304 40.5865 17.344 40.1385 18.624Z" fill="black"/>
<path d="M59.9737 15.888C58.5337 15.888 57.5577 15.536 57.0457 14.832C57.0457 14.32 57.2537 13.92 57.6697 13.632C58.1177 13.344 58.5977 13.168 59.1097 13.104C59.6217 13.008 60.4537 12.928 61.6057 12.864C61.7017 12 61.7497 10.896 61.7497 9.552C61.7817 8.176 61.8137 7.008 61.8457 6.048C61.9417 3.52 62.3257 1.968 62.9977 1.392C63.2857 1.136 63.5897 1.008 63.9097 1.008C64.2617 1.008 64.5657 1.04 64.8217 1.104C64.9177 3.408 64.9657 4.8 64.9657 5.28L64.6777 12.48C64.7417 12.512 64.9177 12.528 65.2057 12.528L68.6617 12.384C71.1577 12.384 72.4057 12.768 72.4057 13.536C72.4057 14.624 71.9578 15.264 71.0618 15.456C70.6458 15.552 70.1497 15.6 69.5737 15.6C69.0297 15.6 68.3097 15.536 67.4137 15.408C66.5497 15.248 65.9257 15.168 65.5417 15.168C65.1577 15.168 64.9017 15.184 64.7737 15.216C64.6777 16.144 64.6297 17.072 64.6297 18C64.6297 18.896 64.6457 20.032 64.6777 21.408C64.7417 22.752 64.8698 24.368 65.0618 26.256C65.2858 28.144 65.7498 29.776 66.4538 31.152C67.1578 32.496 68.0538 33.168 69.1418 33.168C69.6858 33.168 70.3258 32.96 71.0618 32.544C71.7978 32.096 72.3577 31.872 72.7417 31.872C73.1577 31.872 73.5097 31.968 73.7977 32.16C74.1177 32.32 74.2777 32.512 74.2777 32.736C74.2777 33.408 73.5897 34.064 72.2137 34.704C70.8697 35.312 69.7178 35.616 68.7578 35.616C65.2378 35.616 63.0457 32.288 62.1817 25.632C61.9257 23.712 61.7337 20.416 61.6057 15.744C61.0937 15.84 60.5497 15.888 59.9737 15.888Z" fill="black"/>
<path d="M79.5769 26.256C79.5129 26.896 79.4809 27.328 79.4809 27.552C79.4809 29.472 80.0569 30.96 81.2089 32.016C82.3929 33.072 83.7849 33.6 85.3849 33.6C86.9849 33.6 88.2809 33.376 89.2729 32.928C90.2969 32.48 91.0329 32 91.4809 31.488C92.6329 30.048 93.6889 29.328 94.6489 29.328C95.0009 29.328 95.4169 29.424 95.8969 29.616C95.5769 31.184 94.3609 32.624 92.2489 33.936C90.1689 35.216 87.5449 35.856 84.3769 35.856C82.1369 35.856 80.2009 35.152 78.5689 33.744C76.9689 32.304 76.1689 30.352 76.1689 27.888C76.1689 25.424 76.6489 23.04 77.6089 20.736C78.6009 18.4 80.0089 16.416 81.8329 14.784C83.6889 13.12 85.5609 12.288 87.4489 12.288C89.3689 12.288 90.9049 12.688 92.0569 13.488C93.2409 14.256 93.8329 15.392 93.8329 16.896C93.8329 19.68 92.5849 21.984 90.0889 23.808C87.6249 25.6 85.0009 26.496 82.2169 26.496C81.4809 26.496 80.6009 26.416 79.5769 26.256ZM83.2249 24.672C84.7289 24.672 86.0729 24.192 87.2569 23.232C88.4409 22.272 89.2729 21.264 89.7529 20.208C90.2649 19.152 90.5209 18.192 90.5209 17.328C90.5209 16.464 90.1849 15.712 89.5129 15.072C88.8409 14.4 88.0569 14.064 87.1609 14.064C85.5609 14.064 84.0729 15.168 82.6969 17.376C81.3529 19.584 80.3929 21.872 79.8169 24.24C81.2249 24.528 82.3609 24.672 83.2249 24.672Z" fill="black"/>
<path d="M101.4 7.296C101.4 4.128 100.968 2 100.104 0.912003C100.52 0.304001 101.24 0 102.264 0C102.456 0 102.664 0.0160007 102.888 0.0480022C103.688 0.848001 104.088 3.168 104.088 7.008C104.088 9.088 103.992 11.504 103.8 14.256C103.416 19.056 103.224 22.576 103.224 24.816C103.224 30.864 104.392 33.888 106.728 33.888C106.728 33.888 107.32 33.776 108.504 33.552C108.792 33.552 109.032 33.68 109.224 33.936C109.128 35.088 108.184 35.664 106.392 35.664C104.632 35.664 103.272 35.136 102.312 34.08C101.352 32.992 100.744 31.648 100.488 30.048C100.264 28.416 100.152 27.072 100.152 26.016C100.152 24.96 100.168 23.808 100.2 22.56C100.232 21.28 100.376 19.456 100.632 17.088C101.144 12.288 101.4 9.024 101.4 7.296Z" fill="black"/>
<path d="M114.662 0.672C114.63 1.408 114.614 2.224 114.614 3.12C114.614 4.016 114.662 4.944 114.758 5.904C114.31 6.416 113.702 6.672 112.934 6.672C111.974 6.672 111.494 5.904 111.494 4.368C111.494 4.304 111.494 4.064 111.494 3.648C111.494 3.232 111.494 2.864 111.494 2.544C111.526 2.192 111.59 1.792 111.686 1.344C111.91 0.576 112.406 0.192 113.174 0.192C113.942 0.192 114.438 0.352 114.662 0.672ZM111.59 24.192C111.59 17.92 111.91 14.304 112.55 13.344C112.774 12.992 113.046 12.816 113.366 12.816C113.686 12.816 114.214 12.992 114.95 13.344C114.79 16.064 114.71 19.024 114.71 22.224C114.71 22.224 114.742 25.76 114.806 32.832C114.806 33.824 114.582 34.528 114.134 34.944C113.718 35.328 113.318 35.52 112.934 35.52C112.582 35.52 112.214 35.424 111.83 35.232C111.67 31.072 111.59 27.392 111.59 24.192Z" fill="black"/>
<path d="M120.911 15.888C119.471 15.888 118.495 15.536 117.983 14.832C117.983 14.32 118.191 13.92 118.607 13.632C119.055 13.344 119.535 13.168 120.047 13.104C120.559 13.008 121.391 12.928 122.543 12.864C122.639 12 122.687 10.896 122.687 9.552C122.719 8.176 122.751 7.008 122.783 6.048C122.879 3.52 123.263 1.968 123.935 1.392C124.223 1.136 124.527 1.008 124.847 1.008C125.199 1.008 125.503 1.04 125.759 1.104C125.855 3.408 125.903 4.8 125.903 5.28L125.615 12.48C125.679 12.512 125.855 12.528 126.143 12.528L129.599 12.384C132.095 12.384 133.343 12.768 133.343 13.536C133.343 14.624 132.895 15.264 131.999 15.456C131.583 15.552 131.087 15.6 130.511 15.6C129.967 15.6 129.247 15.536 128.351 15.408C127.487 15.248 126.863 15.168 126.479 15.168C126.095 15.168 125.839 15.184 125.711 15.216C125.615 16.144 125.567 17.072 125.567 18C125.567 18.896 125.583 20.032 125.615 21.408C125.679 22.752 125.807 24.368 125.999 26.256C126.223 28.144 126.687 29.776 127.391 31.152C128.095 32.496 128.991 33.168 130.079 33.168C130.623 33.168 131.263 32.96 131.999 32.544C132.735 32.096 133.295 31.872 133.679 31.872C134.095 31.872 134.447 31.968 134.735 32.16C135.055 32.32 135.215 32.512 135.215 32.736C135.215 33.408 134.527 34.064 133.151 34.704C131.807 35.312 130.655 35.616 129.695 35.616C126.175 35.616 123.983 32.288 123.119 25.632C122.863 23.712 122.671 20.416 122.543 15.744C122.031 15.84 121.487 15.888 120.911 15.888Z" fill="black"/>
<path d="M149.538 15.84C149.538 13.536 150.274 12.384 151.746 12.384C152.034 12.384 152.322 12.416 152.61 12.48C152.61 12.864 152.61 13.904 152.61 15.6C152.61 17.296 152.834 20.688 153.282 25.776C153.73 30.864 153.954 34.672 153.954 37.2C153.954 41.232 153.25 44.016 151.842 45.552C150.434 47.088 148.034 47.856 144.642 47.856C141.282 47.856 138.114 46.768 135.138 44.592C135.714 43.888 136.466 43.536 137.394 43.536C137.746 43.568 138.306 43.808 139.074 44.256C141.346 45.6 143.234 46.272 144.738 46.272C146.978 46.272 148.562 45.568 149.49 44.16C150.418 42.752 150.882 40.384 150.882 37.056C150.882 36.256 150.802 33.376 150.642 28.416C150.61 28.512 150.498 28.928 150.306 29.664C150.114 30.368 149.97 30.832 149.874 31.056C149.778 31.28 149.602 31.696 149.346 32.304C149.122 32.912 148.882 33.344 148.626 33.6C148.37 33.856 148.034 34.16 147.618 34.512C146.914 35.152 146.018 35.472 144.93 35.472C143.874 35.472 143.026 35.328 142.386 35.04C141.746 34.752 141.202 34.304 140.754 33.696C140.338 33.088 139.954 32.448 139.602 31.776C139.282 31.104 139.026 30.256 138.834 29.232C138.642 28.176 138.482 27.216 138.354 26.352C138.258 25.488 138.178 24.432 138.114 23.184C138.082 21.936 138.05 20.896 138.018 20.064C138.018 19.232 138.018 18.176 138.018 16.896V14.016C138.338 13.472 138.914 13.2 139.746 13.2C140.898 13.2 141.474 13.616 141.474 14.448L141.186 19.104C141.186 23.168 141.618 26.672 142.482 29.616C143.346 32.56 144.242 34.032 145.17 34.032C145.874 34.032 146.498 33.648 147.042 32.88C147.586 32.112 148.002 31.04 148.29 29.664C148.578 28.256 148.818 26.928 149.01 25.68C149.202 24.432 149.33 22.976 149.394 21.312C149.49 18.784 149.538 16.96 149.538 15.84Z" fill="black"/>
</svg>
